<?xml version="1.0" encoding="UTF-8" standalone="no"?>
<svg
   xmlns:dc="http://purl.org/dc/elements/1.1/"
   xmlns:cc="http://creativecommons.org/ns#"
   xmlns:rdf="http://www.w3.org/1999/02/22-rdf-syntax-ns#"
   xmlns:svg="http://www.w3.org/2000/svg"
   xmlns="http://www.w3.org/2000/svg"
   xmlns:sodipodi="http://sodipodi.sourceforge.net/DTD/sodipodi-0.dtd"
   xmlns:inkscape="http://www.inkscape.org/namespaces/inkscape"
   width="750"
   height="720"
   viewBox="0 0 150 144"
   version="1.1"
   id="svg6"
   sodipodi:docname="star.svg"
   inkscape:version="0.92.4 (unknown)">
  <metadata
     id="metadata12">
    <rdf:RDF>
      <cc:Work
         rdf:about="">
        <dc:format>image/svg+xml</dc:format>
        <dc:type
           rdf:resource="http://purl.org/dc/dcmitype/StillImage" />
        <dc:title></dc:title>
      </cc:Work>
    </rdf:RDF>
  </metadata>
  <defs
     id="defs10" />
  <sodipodi:namedview
     pagecolor="#ffffff"
     bordercolor="#666666"
     borderopacity="1"
     objecttolerance="10"
     gridtolerance="10"
     guidetolerance="10"
     inkscape:pageopacity="0"
     inkscape:pageshadow="2"
     inkscape:window-width="1570"
     inkscape:window-height="838"
     id="namedview8"
     showgrid="false"
     inkscape:zoom="0.98333333"
     inkscape:cx="456.21297"
     inkscape:cy="295.53218"
     inkscape:window-x="15"
     inkscape:window-y="32"
     inkscape:window-maximized="0"
     inkscape:current-layer="svg6" />
  <style
  id="style2">
  path {
fill: #e6cce6;
  }
</style>
  <path
     d="M 74.4,96.999999 80.4,114 H 98.400004 L 84.4,125 89.400004,142 74.4,132 l -15,10 5,-17 -14,-11 h 18 z"
     id="path4-3"
     inkscape:connector-curvature="0"
     style="stroke-width:1" />
  <path
     d="m 25.4,51 6,17 h 18 l -14,11 5,17 -15,-10 -15,10 5,-17 -14,-11 h 18 z"
     id="path4-7"
     inkscape:connector-curvature="0"
     style="stroke-width:1" />
  <path
     d="M 124.4,51.00001 130.4,68 h 18.00001 L 134.4,79 139.40001,96 124.4,86 l -15,10 5,-17 -14,-11 h 18 z"
     id="path4-3-6-3"
     inkscape:connector-curvature="0"
     style="stroke-width:1" />
  <path
     d="m 74.399999,3 6,17 h 18 l -14,11 5,17 -15,-10 -15,10 5,-17 L 50.4,20 h 17.999999 z"
     id="path4-3-5-6"
     inkscape:connector-curvature="0"
     style="stroke-width:1" />
</svg>
